<svg xmlns="http://www.w3.org/2000/svg" width="600" height="400" viewBox="0 0 600 400"><rect width="100%" height="100%" fill="#DDDDDD"/><path fill="#999999" d="M162.35 173.45h6.2v44.1h-7.23v-28.49q0-1.71.18-3.69l-13.33 25.04q-.94 1.8-2.9 1.8h-1.16q-1.95 0-2.89-1.8l-13.48-25.13q.09 1.01.15 1.98.06.98.06 1.8v28.49h-7.23v-44.1h6.19q.55 0 .95.03.39.03.71.15.33.12.58.4.26.27.51.73l13.2 24.49q.52.98.96 2.01.45 1.04.87 2.14.43-1.13.89-2.18t.97-2.03l13.03-24.43q.24-.46.52-.73.27-.28.59-.4t.72-.15q.39-.03.94-.03m31.36 36.02v-5.28q-3.27.15-5.49.57-2.23.41-3.57 1.05t-1.92 1.49q-.58.86-.58 1.86 0 1.98 1.17 2.84 1.18.85 3.07.85 2.32 0 4.01-.84 1.69-.83 3.31-2.54m-15.92-16.44-1.35-2.41q5.4-4.94 13-4.94 2.74 0 4.91.9 2.16.9 3.66 2.5 1.49 1.6 2.27 3.83.78 2.22.78 4.88v19.76h-3.42q-1.07 0-1.64-.32-.58-.32-.92-1.3l-.67-2.25q-1.19 1.06-2.32 1.87t-2.35 1.36-2.61.84q-1.38.29-3.06.29-1.98 0-3.66-.54-1.68-.53-2.9-1.6-1.22-1.06-1.89-2.65t-.67-3.69q0-1.19.4-2.36.39-1.18 1.29-2.25.9-1.06 2.34-2.01 1.43-.94 3.52-1.65 2.09-.7 4.86-1.14 2.78-.44 6.35-.53v-1.83q0-3.15-1.34-4.66-1.35-1.51-3.88-1.51-1.83 0-3.03.43-1.21.43-2.12.96-.92.54-1.66.96-.75.43-1.67.43-.79 0-1.34-.41t-.88-.96m36.99-4.88.46 3.54q1.46-2.81 3.48-4.41 2.01-1.6 4.76-1.6 2.16 0 3.47.94l-.49 5.65q-.15.54-.44.77t-.78.23q-.45 0-1.35-.15t-1.76-.15q-1.25 0-2.22.36-.98.37-1.76 1.06-.77.68-1.37 1.66-.59.97-1.11 2.22v19.28h-7.54v-31.29h4.43q1.16 0 1.61.41.46.41.61 1.48m16.2-15.92h7.53v45.32h-7.53zm28.91 13.54q3.48 0 6.33 1.13t4.88 3.2 3.13 5.06 1.1 6.68q0 3.72-1.1 6.71t-3.13 5.1q-2.03 2.1-4.88 3.23t-6.33 1.13q-3.5 0-6.37-1.13t-4.9-3.23q-2.03-2.11-3.14-5.1t-1.11-6.71q0-3.69 1.11-6.68t3.14-5.06 4.9-3.2 6.37-1.13m0 26.44q3.91 0 5.78-2.62 1.88-2.62 1.88-7.69 0-5.06-1.88-7.71-1.87-2.66-5.78-2.66-3.96 0-5.87 2.67-1.9 2.67-1.9 7.7 0 5.04 1.9 7.67 1.91 2.64 5.87 2.64m27.73-24.58.52 2.47q.94-.95 1.99-1.75 1.06-.81 2.23-1.38 1.17-.56 2.52-.88 1.34-.32 2.92-.32 2.57 0 4.55.87t3.31 2.44q1.32 1.57 2.01 3.75t.69 4.8v19.92h-7.54v-19.92q0-2.86-1.31-4.43-1.31-1.58-3.99-1.58-1.96 0-3.66.89-1.71.88-3.24 2.41v22.63h-7.53v-31.29h4.61q1.46 0 1.92 1.37m52.09 7.99h6.13q2.26 0 3.94-.56 1.67-.57 2.79-1.62 1.11-1.05 1.66-2.56t.55-3.37q0-1.77-.55-3.2-.55-1.44-1.65-2.45-1.1-1-2.77-1.54-1.68-.53-3.97-.53h-6.13zm-8.2-22.17h14.33q4.42 0 7.66 1.03 3.23 1.04 5.33 2.9 2.11 1.86 3.13 4.45 1.02 2.6 1.02 5.68 0 3.2-1.06 5.87-1.07 2.67-3.21 4.59-2.13 1.92-5.35 2.99t-7.52 1.07h-6.13v15.52h-8.2zm50.41 12.32q3.48 0 6.33 1.13t4.88 3.2 3.13 5.06 1.1 6.68q0 3.72-1.1 6.71t-3.13 5.1q-2.03 2.1-4.88 3.23t-6.33 1.13q-3.5 0-6.37-1.13t-4.9-3.23q-2.02-2.11-3.14-5.1-1.11-2.99-1.11-6.71 0-3.69 1.11-6.68 1.12-2.99 3.14-5.06 2.03-2.07 4.9-3.2t6.37-1.13m0 26.44q3.91 0 5.78-2.62 1.88-2.62 1.88-7.69 0-5.06-1.88-7.71-1.87-2.66-5.78-2.66-3.96 0-5.87 2.67-1.9 2.67-1.9 7.7 0 5.04 1.9 7.67 1.91 2.64 5.87 2.64m21.29-39.98h7.54v45.32h-7.54zm21.02 26.07h14.21q0-1.46-.41-2.76-.41-1.29-1.24-2.27-.82-.97-2.09-1.54-1.26-.56-2.94-.56-3.26 0-5.14 1.86-1.87 1.86-2.39 5.27m19.21 4.55h-19.37q.19 2.41.86 4.16.67 1.76 1.77 2.9t2.6 1.71q1.51.56 3.34.56t3.16-.42q1.33-.43 2.32-.95t1.74-.95q.75-.42 1.45-.42.94 0 1.4.7l2.17 2.74q-1.26 1.47-2.81 2.46-1.56.99-3.25 1.58-1.69.6-3.45.84-1.75.25-3.4.25-3.26 0-6.07-1.09-2.8-1.08-4.88-3.2-2.07-2.12-3.26-5.24-1.19-3.13-1.19-7.25 0-3.2 1.04-6.02t2.97-4.91q1.94-2.09 4.73-3.31t6.3-1.22q2.96 0 5.46.94 2.5.95 4.3 2.76 1.8 1.82 2.82 4.46t1.02 6.02q0 1.71-.37 2.3-.36.6-1.4.6m29.8-16.59h6.04l-17.05 39.89q-.34.79-.87 1.21-.53.41-1.63.41h-5.61l5.85-12.57-12.66-28.94h6.62q.89 0 1.39.42.5.43.75.98l6.65 16.23q.33.82.56 1.64.23.83.44 1.68.28-.85.55-1.69.28-.84.61-1.66l6.29-16.2q.24-.61.8-1.01.57-.39 1.27-.39"/></svg>